{
  "title": "Mechanic.Resurrection.2016.HC.HDRip.x264.AAC-VYTO [P2PDL]",
  "uid": 15943230,
  "size": 429410762,
  "categoryP": "video",
  "categoryS": "movies",
  "magnet": "?xt=urn:btih:a9bbbb38d4ac8d79b44dd6a3f2df891d7b2963cd&amp;dn=Mechanic.Resurrection.2016.HC.HDRip.x264.AAC-VYTO+%5BP2PDL%5D&amp;tr=udp%3A%2F%2Ftracker.leechers-paradise.org%3A6969&amp;tr=udp%3A%2F%2Fzer0day.ch%3A1337&amp;tr=udp%3A%2F%2Fopen.demonii.com%3A1337&amp;tr=udp%3A%2F%2Ftracker.coppersurfer.tk%3A6969&amp;tr=udp%3A%2F%2Fexodus.desync.com%3A6969",
  "seeders": 90,
  "leechers": 42,
  "uploader": "VYTOP2PDL",
  "files": 7,
  "time": 1475477723,
  "description": "Mechanic.Resurrection.2016.HC.HDRip.x264.AAC-VYTO [P2PDL]\r\n\r\n\r\n\r\nGenre: Action, Crime, Thriller  \nhttp://www.imdb.com/title/tt3522806/\r\n\r\n\r\nFormat                      : MPEG-4\r\nFile size                   : 401 MiB\r\nDuration                    : 1h 37mn\r\nOverall bit rate mode       : Variable\r\nOverall bit rate            : 573 Kbps\r\n\r\nVideo\r\nFormat                      : AVC\r\nDuration                    : 1h 37mn\r\nBit rate                    : 530 Kbps\r\nMaximum bit rate            : 6 558 Kbps\r\nWidth                       : 656 pixels\r\nHeight                      : 272 pixels\r\nDisplay aspect ratio        : 2.40:1\r\nFrame rate mode             : Constant\r\nFrame rate                  : 24.000 fps\r\nColor space                 : YUV\r\nChroma subsampling          : 4:2:0\r\nBit depth                   : 8 bits\r\nScan type                   : Progressive\r\nBits/(Pixel*Frame)          : 0.124\r\nStream size                 : 370 MiB (92%)\r\nWriting library             : x264 core 148 r2705 3f5ed56\r\n\r\nAudio\r\nFormat                      : AAC\r\nDuration                    : 1h 37mn\r\nBit rate mode               : Variable\r\nBit rate                    : 40.0 Kbps\r\nMaximum bit rate            : 50.9 Kbps\r\nChannel(s)                  : 2 channels\r\nChannel positions           : Front: L R\r\nSampling rate               : 44.1 KHz / 22.05 KHz\r\nCompression mode            : Lossy\r\nStream size                 : 28.0 MiB (7%)\r\nLanguage                    : English\r\n\r\nSubtitle                    : Korean (Hard Coded)\r\n\r\nScreen Shots: (click the links to view)\r\n \nhttps://ititli.com/XIt \nhttps://ititli.com/XIL \nhttps://ititli.com/XId \nhttps://ititli.com/XI0 \nhttps://ititli.com/XIA \nhttps://ititli.com/XIl \nhttps://ititli.com/XIm \nhttps://ititli.com/XIx\r\n\r\n\r\n----------------------------------------------------------------------------------------------------\r\n\r\n\r\nEncoder Notes: Looking For Early Access To Anything You Can Provide WEBDL, DVDScr, DVDR, BluRay,\r\nDirect Audio, Music Releases and Seedboxes. If You Got anything to offer please contact us.\r\n\r\nSupport us by donating BC - 1FgwdzPsd1y25Gea8wP1qni35uGCtmkRCD\r\n\r\n\r\nFind us and join us!",
  "parsed": {
    "xt": "urn:btih:a9bbbb38d4ac8d79b44dd6a3f2df891d7b2963cd",
    "dn": "Mechanic.Resurrection.2016.HC.HDRip.x264.AAC-VYTO [P2PDL]",
    "tr": [
      "udp://exodus.desync.com:6969",
      "udp://open.demonii.com:1337",
      "udp://tracker.coppersurfer.tk:6969",
      "udp://tracker.leechers-paradise.org:6969",
      "udp://zer0day.ch:1337"
    ],
    "infoHash": "a9bbbb38d4ac8d79b44dd6a3f2df891d7b2963cd",
    "infoHashBuffer": {
      "type": "Buffer",
      "data": [
        169,
        187,
        187,
        56,
        212,
        172,
        141,
        121,
        180,
        77,
        214,
        163,
        242,
        223,
        137,
        29,
        123,
        41,
        99,
        205
      ]
    },
    "name": "Mechanic.Resurrection.2016.HC.HDRip.x264.AAC-VYTO [P2PDL]",
    "announce": [
      "udp://exodus.desync.com:6969",
      "udp://open.demonii.com:1337",
      "udp://tracker.coppersurfer.tk:6969",
      "udp://tracker.leechers-paradise.org:6969",
      "udp://zer0day.ch:1337"
    ],
    "urlList": []
  },
  "previous": 106,
  "peers": 114,
  "last_updated": "2016-12-27T09:41:44.926Z"
}